<?xml version="1.0" encoding="iso-8859-1"?>
<!-- Generator: Adobe Illustrator 27.1.1, SVG Export Plug-In . SVG Version: 6.00 Build 0)  -->
<svg version="1.1" id="Capa_1" xmlns="http://www.w3.org/2000/svg" xmlns:xlink="http://www.w3.org/1999/xlink" x="0px" y="0px"
	 viewBox="0 0 93 93" style="enable-background:new 0 0 93 93;" xml:space="preserve">
<g>
	<g>
		<path style="fill:#C09858;" d="M42.83,52.1c-0.19,0-0.38-0.07-0.53-0.22c-0.26-0.26-0.29-0.68-0.07-0.98
			c1.98-2.65,2.69-7.08,2.69-10.35c0-2.93-0.93-7.19-2.48-9.25c-0.19-0.26-0.2-0.61-0.02-0.88c0.18-0.27,0.52-0.38,0.83-0.3
			c3.04,0.88,6.26,3.56,8.38,6.91c2.82-1.99,5.97-3.61,9.39-4.84c0.27-0.1,0.58-0.03,0.78,0.18c0.2,0.21,0.27,0.51,0.18,0.78
			c-1.22,3.42-2.85,6.58-4.84,9.39c3.36,2.12,6.03,5.33,6.91,8.38c0.09,0.31-0.03,0.64-0.29,0.83c-0.27,0.19-0.62,0.18-0.88-0.02
			c-2.06-1.55-6.32-2.48-9.25-2.48c-3.27,0-7.71,0.71-10.35,2.69C43.14,52.05,42.98,52.1,42.83,52.1z M53.63,47.77
			c2.4,0,5.69,0.57,8.16,1.65c-1.4-2.53-3.9-4.74-6.11-5.99c-0.19-0.11-0.32-0.29-0.36-0.5c-0.04-0.21,0-0.43,0.13-0.6
			c1.81-2.44,3.33-5.17,4.52-8.13c-2.96,1.2-5.68,2.71-8.13,4.52c-0.17,0.13-0.39,0.18-0.6,0.13c-0.21-0.04-0.39-0.18-0.5-0.36
			c-1.25-2.21-3.46-4.71-5.99-6.11c1.08,2.48,1.65,5.76,1.65,8.16c0,1.36-0.14,5.38-1.61,8.83C48.25,47.9,52.26,47.77,53.63,47.77z"
			/>
	</g>
	<g>
		<g>
			<path style="fill:#C09858;" d="M91.67,92.5H1.66c-0.41,0-0.75-0.34-0.75-0.75V1.74c0-0.41,0.34-0.75,0.75-0.75
				c0.41,0,0.75,0.34,0.75,0.75V91h89.26c0.41,0,0.75,0.34,0.75,0.75C92.42,92.16,92.08,92.5,91.67,92.5z"/>
		</g>
		<g>
			<path style="fill:#C09858;" d="M28.98,92.5c-0.15,0-0.29-0.04-0.42-0.13c-5.08-3.47-7.68-14.66-5.43-22.09
				c-7.43,2.25-18.61-0.35-22.09-5.43c-0.23-0.34-0.15-0.81,0.2-1.04c0.34-0.23,0.81-0.15,1.04,0.2c3.33,4.87,15.15,7.22,21.8,4.33
				c0.28-0.12,0.61-0.06,0.83,0.16c0.22,0.22,0.28,0.55,0.16,0.83c-2.89,6.65-0.54,18.47,4.33,21.8c0.34,0.23,0.43,0.7,0.2,1.04
				C29.45,92.38,29.22,92.5,28.98,92.5z"/>
		</g>
		<g>
			<path style="fill:#C09858;" d="M18.75,61.49c-2.38,0-4.81-0.42-7.13-1.28C5.41,57.92,0.91,51.59,0.91,45.16
				c0-0.41,0.34-0.75,0.75-0.75c0.41,0,0.75,0.34,0.75,0.75c0,5.83,4.09,11.56,9.73,13.64c5.1,1.88,10.7,1.52,15.01-0.97
				c4.92-2.84,8.1-8.2,8.1-13.66c0-4.61-1.8-8.94-4.94-11.88c-2.99-2.81-6.95-4.13-11.44-3.85c-3.42,0.22-6.12,3.17-6.15,6.71
				c0,0.26,0.01,0.51,0.04,0.76c0.14,0.72,1.42,1.2,2.22,1.13c0.66-0.01,1.29-0.31,2.04-0.96c0.13-0.11,0.26-0.23,0.39-0.35
				c0.59-0.55,1.27-1.17,2.28-1.37c1.44-0.3,2.99,0.31,3.87,1.52c0.91,1.25,0.85,3.14-0.16,4.48c-0.87,1.17-2.22,1.88-3.89,2.05
				c-2.16,0.21-4.53-0.53-6.05-1.89c-1.44-1.3-2.26-3.26-2.24-5.39c0.04-4.32,3.36-7.92,7.56-8.19c4.92-0.32,9.26,1.15,12.56,4.25
				c3.44,3.23,5.42,7.96,5.42,12.98c0,5.98-3.48,11.85-8.85,14.96C25.19,60.7,22.02,61.49,18.75,61.49z M13.57,38.34
				c0.25,0.4,0.55,0.76,0.89,1.07c1.2,1.08,3.16,1.68,4.9,1.51c0.86-0.09,2.05-0.41,2.83-1.45c0.61-0.82,0.67-1.98,0.15-2.7
				c-0.53-0.73-1.5-1.11-2.35-0.93c-0.6,0.12-1.05,0.54-1.57,1.01c-0.14,0.13-0.28,0.25-0.42,0.38c-0.64,0.55-1.65,1.29-2.99,1.32
				C14.57,38.55,14.07,38.49,13.57,38.34z"/>
		</g>
		<g>
			<path style="fill:#C09858;" d="M48.25,92.5c-6.43,0-12.76-4.5-15.05-10.71c-2.03-5.51-1.63-11.59,1.08-16.28
				c3.1-5.38,8.97-8.85,14.96-8.85c5.02,0,9.75,1.97,12.98,5.42c3.1,3.3,4.57,7.65,4.25,12.56c-0.27,4.19-3.87,7.51-8.19,7.56
				c-2.11,0.02-4.09-0.79-5.39-2.24c-1.36-1.52-2.1-3.89-1.89-6.05c0.17-1.67,0.87-3.01,2.05-3.89c1.34-1,3.23-1.07,4.48-0.16
				c1.21,0.88,1.82,2.43,1.52,3.87c-0.21,1.01-0.83,1.68-1.38,2.28c-0.12,0.13-0.23,0.25-0.35,0.39c-0.65,0.75-0.94,1.38-0.96,2.04
				c-0.02,0.81,0.41,2.07,1.13,2.22c0.25,0.03,0.51,0.04,0.76,0.04c3.54-0.04,6.49-2.74,6.71-6.15c0.29-4.49-1.04-8.44-3.85-11.44
				c-2.94-3.14-7.27-4.94-11.88-4.94c-5.46,0-10.82,3.18-13.66,8.1c-2.48,4.3-2.85,9.92-0.97,15.01C36.68,86.91,42.42,91,48.25,91
				c0.41,0,0.75,0.34,0.75,0.75C49,92.16,48.66,92.5,48.25,92.5z M55.45,70.71c-0.52,0-1.07,0.17-1.52,0.5
				c-1.04,0.78-1.37,1.97-1.45,2.83c-0.17,1.73,0.44,3.7,1.51,4.9c0.31,0.34,0.67,0.64,1.07,0.89c-0.15-0.5-0.22-1-0.21-1.44
				c0.03-1.34,0.77-2.35,1.32-2.99c0.12-0.14,0.25-0.28,0.38-0.42c0.48-0.52,0.89-0.96,1.01-1.57c0.18-0.86-0.21-1.83-0.94-2.35
				C56.31,70.83,55.89,70.71,55.45,70.71z"/>
		</g>
	</g>
</g>
<g>
</g>
<g>
</g>
<g>
</g>
<g>
</g>
<g>
</g>
<g>
</g>
<g>
</g>
<g>
</g>
<g>
</g>
<g>
</g>
<g>
</g>
<g>
</g>
<g>
</g>
<g>
</g>
<g>
</g>
</svg>
